<svg id="Capa_1" enable-background="new 0 0 512 512" height="512" viewBox="0 0 512 512" width="512" fill="#297373" xmlns="http://www.w3.org/2000/svg"><g><path d="m163.316 102.868h71.45c4.142 0 7.5-3.358 7.5-7.5s-3.358-7.5-7.5-7.5h-71.45c-4.142 0-7.5 3.358-7.5 7.5s3.358 7.5 7.5 7.5z"/><path d="m124.802 265.584h33.477c19.104 0 34.645-15.542 34.645-34.645v-33.477c0-19.104-15.542-34.645-34.645-34.645h-33.477c-19.104 0-34.646 15.542-34.646 34.645v33.477c0 19.104 15.542 34.645 34.646 34.645zm-19.646-68.122c0-10.833 8.813-19.645 19.646-19.645h33.477c10.833 0 19.645 8.812 19.645 19.645v33.477c0 10.833-8.812 19.645-19.645 19.645h-33.477c-10.833 0-19.646-8.812-19.646-19.645z"/><path d="m479.076 98.46c-4.142 0-7.5 3.358-7.5 7.5v54.25c0 33.569-27.311 60.88-60.88 60.88h-84.33c-33.569 0-60.88-27.311-60.88-60.88v-84.33c0-33.569 27.311-60.88 60.88-60.88h84.33c33.569 0 60.88 27.311 60.88 60.96 0 4.142 3.358 7.46 7.5 7.46s7.5-3.398 7.5-7.54c0-41.84-34.04-75.88-75.88-75.88h-84.33c-33.52 0-62.014 21.856-72.029 52.06h-166.822c-34.237 0-62.091 27.854-62.091 62.091v335.757c0 34.237 27.854 62.091 62.091 62.091h223.056c34.237 0 62.091-27.854 62.091-62.091v-213.818h38.034c41.84 0 75.88-34.04 75.88-75.88v-54.25c0-4.142-3.357-7.5-7.5-7.5zm-186.149 129.842v2.64c0 10.833-8.812 19.645-19.645 19.645h-33.48c-10.833 0-19.646-8.812-19.646-19.645v-33.48c0-10.833 8.813-19.646 19.646-19.646h12.77c5.292 22.185 20.341 40.618 40.355 50.486zm64.735 221.607c0 25.966-21.125 47.091-47.091 47.091h-223.056c-25.966 0-47.091-21.125-47.091-47.091v-335.758c0-25.966 21.125-47.091 47.091-47.091h163.501c-.337 2.896-.529 5.835-.529 8.82v40.666c-4.269 3.229-9.447 4.984-14.87 4.984h-73.15c-13.614 0-24.69-11.076-24.69-24.69v-1.47c0-4.142-3.358-7.5-7.5-7.5h-30.41c-21.306 0-38.64 17.329-38.64 38.63v311.05c0 21.301 17.334 38.63 38.64 38.63h14.77c4.142 0 7.5-3.358 7.5-7.5s-3.358-7.5-7.5-7.5h-14.77c-13.035 0-23.64-10.601-23.64-23.63v-311.05c0-13.03 10.605-23.63 23.64-23.63h23.367c2.913 19.035 19.397 33.66 39.233 33.66h73.15c5.168 0 10.2-.989 14.87-2.875v26.555c0 .874.037 1.739.066 2.606h-10.752c-19.104 0-34.646 15.542-34.646 34.646v33.48c0 19.104 15.542 34.645 34.646 34.645h33.48c18.146 0 33.068-14.026 34.519-31.804 4.538 1.146 9.237 1.876 14.056 2.161v201.606c0 13.03-10.609 23.63-23.65 23.63h-153.57c-4.142 0-7.5 3.358-7.5 7.5s3.358 7.5 7.5 7.5h153.57c21.312 0 38.65-17.33 38.65-38.63v-201.46h20.806z"/><path d="m192.924 342.65v-33.477c0-19.104-15.542-34.645-34.645-34.645h-33.477c-19.104 0-34.646 15.542-34.646 34.645v33.477c0 19.104 15.542 34.645 34.646 34.645h33.477c19.103 0 34.645-15.541 34.645-34.645zm-87.768 0v-33.477c0-10.833 8.813-19.645 19.646-19.645h33.477c10.833 0 19.645 8.812 19.645 19.645v33.477c0 10.833-8.812 19.645-19.645 19.645h-33.477c-10.833 0-19.646-8.812-19.646-19.645z"/><path d="m239.804 377.295h33.478c19.104 0 34.645-15.542 34.645-34.645v-33.477c0-19.104-15.542-34.645-34.645-34.645h-33.478c-19.104 0-34.645 15.542-34.645 34.645v33.477c0 19.104 15.541 34.645 34.645 34.645zm-19.645-68.122c0-10.833 8.812-19.645 19.645-19.645h33.478c10.833 0 19.645 8.812 19.645 19.645v33.477c0 10.833-8.812 19.645-19.645 19.645h-33.478c-10.833 0-19.645-8.812-19.645-19.645z"/><path d="m336.173 70.662c-2.929-2.929-7.678-2.929-10.606 0l-42.078 42.078c-2.929 2.929-2.929 7.678 0 10.606l42.078 42.078c1.464 1.464 3.384 2.197 5.303 2.197s3.839-.732 5.303-2.197c2.929-2.929 2.929-7.678 0-10.606l-36.775-36.775 36.775-36.775c2.929-2.929 2.929-7.678 0-10.606z"/><path d="m400.887 165.424c1.464 1.464 3.384 2.197 5.303 2.197s3.839-.732 5.303-2.197l42.078-42.078c2.929-2.929 2.929-7.678 0-10.606l-42.078-42.078c-2.929-2.929-7.678-2.929-10.606 0-2.929 2.929-2.929 7.678 0 10.606l36.775 36.775-36.775 36.775c-2.929 2.929-2.929 7.678 0 10.606z"/><path d="m379.877 46.043-38.514 140.021c-1.099 3.994 1.249 8.122 5.242 9.221.666.183 1.335.271 1.994.271 3.292 0 6.312-2.185 7.227-5.513l38.514-140.022c1.099-3.994-1.249-8.122-5.242-9.221-3.996-1.098-8.122 1.249-9.221 5.243z"/></g></svg>