<?xml version="1.0" encoding="iso-8859-1"?>
<!-- Generator: Adobe Illustrator 19.0.0, SVG Export Plug-In . SVG Version: 6.00 Build 0)  -->
<svg version="1.1" id="Capa_1" xmlns="http://www.w3.org/2000/svg" xmlns:xlink="http://www.w3.org/1999/xlink" x="0px" y="0px"
	 viewBox="0 0 480 480" style="enable-background:new 0 0 480 480;fill: #297373;" xml:space="preserve">
<g>
	<g>
		<rect x="232" y="392" width="16" height="16"/>
	</g>
</g>
<g>
	<g>
		<path d="M472,408h-8V120c0-17.673-14.327-32-32-32h-32V40c0-17.673-14.327-32-32-32H176c-17.673,0-32,14.327-32,32v8h-16
			c-17.673,0-32,14.327-32,32v8H48c-17.673,0-32,14.327-32,32v288H8c-4.418,0-8,3.582-8,8v24c0,17.673,14.327,32,32,32h416
			c17.673,0,32-14.327,32-32v-24C480,411.582,476.418,408,472,408z M160,40c0-8.837,7.163-16,16-16h192c8.837,0,16,7.163,16,16v128
			c0,8.837-7.163,16-16,16h-16c-2.518,0-4.889,1.186-6.4,3.2L328,210.664L310.4,187.2c-1.511-2.014-3.882-3.2-6.4-3.2H176
			c-8.837,0-16-7.163-16-16V40z M112,80c0-8.837,7.163-16,16-16h16v104c0,17.673,14.327,32,32,32h104v8c0,8.837-7.163,16-16,16h-56
			c-2.518,0-4.889,1.186-6.4,3.2L184,250.664L166.4,227.2c-1.511-2.014-3.882-3.2-6.4-3.2h-32c-8.837,0-16-7.163-16-16V80z M128,240
			h28l21.6,28.8c2.651,3.535,7.665,4.251,11.2,1.6c0.606-0.455,1.145-0.994,1.6-1.6L212,240h52c17.673,0,32-14.327,32-32v-8h4
			l21.6,28.8c2.651,3.535,7.665,4.251,11.2,1.6c0.606-0.455,1.145-0.994,1.6-1.6L356,200h12c17.673,0,32-14.327,32-32v-32h16v224
			h-32v-8c-0.004-13.3-6.618-25.728-17.648-33.16c12.647-12.345,12.892-32.604,0.548-45.252
			c-12.345-12.647-32.604-12.892-45.252-0.547c-12.647,12.345-12.892,32.604-0.548,45.252c0.18,0.185,0.363,0.367,0.548,0.547
			C310.618,326.272,304.004,338.7,304,352v8H176v-8c-0.004-13.3-6.618-25.728-17.648-33.16
			c12.647-12.345,12.892-32.604,0.548-45.252c-12.345-12.647-32.604-12.892-45.252-0.547c-12.647,12.345-12.892,32.604-0.548,45.252
			c0.18,0.185,0.363,0.367,0.548,0.547C102.618,326.272,96.004,338.7,96,352v8H64V136h32v72C96,225.673,110.327,240,128,240z
			 M344,328c13.255,0,24,10.745,24,24v8h-48v-8C320,338.745,330.745,328,344,328z M328,296c0-8.837,7.163-16,16-16s16,7.163,16,16
			s-7.163,16-16,16S328,304.837,328,296z M136,328c13.255,0,24,10.745,24,24v8h-48v-8C112,338.745,122.745,328,136,328z M120,296
			c0-8.837,7.163-16,16-16s16,7.163,16,16s-7.163,16-16,16S120,304.837,120,296z M32,120c0-8.837,7.163-16,16-16h48v16H56
			c-4.418,0-8,3.582-8,8v240c0,4.418,3.582,8,8,8h368c4.418,0,8-3.582,8-8V128c0-4.418-3.582-8-8-8h-24v-16h32
			c8.837,0,16,7.163,16,16v288H312c-2.122,0-4.156,0.844-5.656,2.344L292.688,424H187.312l-13.656-13.656
			c-1.5-1.5-3.534-2.344-5.656-2.344H32V120z M464,440c0,8.837-7.163,16-16,16H32c-8.837,0-16-7.163-16-16v-16h148.688
			l13.656,13.656c1.5,1.5,3.534,2.344,5.656,2.344h112c2.122,0,4.156-0.844,5.656-2.344L315.312,424H464V440z"/>
	</g>
</g>
<g>
	<g>
		<rect x="232" y="48" width="128" height="16"/>
	</g>
</g>
<g>
	<g>
		<rect x="184" y="80" width="176" height="16"/>
	</g>
</g>
<g>
	<g>
		<rect x="184" y="112" width="176" height="16"/>
	</g>
</g>
<g>
	<g>
		<rect x="184" y="144" width="144" height="16"/>
	</g>
</g>
<g>
	<g>
		<rect x="200" y="48" width="16" height="16"/>
	</g>
</g>
<g>
</g>
<g>
</g>
<g>
</g>
<g>
</g>
<g>
</g>
<g>
</g>
<g>
</g>
<g>
</g>
<g>
</g>
<g>
</g>
<g>
</g>
<g>
</g>
<g>
</g>
<g>
</g>
<g>
</g>
</svg>
